<svg version="1" xmlns="http://www.w3.org/2000/svg" width="933.333" height="933.333" viewBox="0 0 700.000000 700.000000"><path d="M327.8.4c-.1.2-4.1.6-8.8 1-4.7.4-10.1.9-12 1.2-10.8 1.5-24.3 3.8-30 5.1-3.6.8-7.2 1.6-8 1.8-15 3.3-35.9 10.1-52.5 17C129.9 62.4 60.5 132.4 25.6 219c-10 24.8-17.7 52-21 74.5-.2 1.6-.8 5-1.2 7.5C1.3 314.1.5 328.3.5 350.5c.1 19.4.7 32.7 2 40.6.2 1.3.6 4.6 1 7.4.9 7.6 1.6 11.6 2.5 16 .5 2.2 1.1 5.3 1.4 7 3 16.1 11.1 42.5 19.1 62.1 17.3 42.1 45.6 83.8 78.7 116.1 8.2 7.9 11.8 11.2 22.8 20.7 7.9 6.8 41.8 30.6 43.6 30.6.2 0 2.3 1.2 4.6 2.6 7.4 4.7 31.2 16.2 43.9 21.2 27.2 10.8 55.2 18.4 80.4 21.7 2.2.2 5.6.7 7.5 1 19.6 2.8 65.5 2.7 85-.1 59.4-8.6 105.7-26.1 153-57.7 48.5-32.4 90.3-80.1 116.8-133.2 18-36.1 30.7-78.1 34.7-115 .4-3.3.9-7.1 1.1-8.5.9-4.7 1.1-52.5.3-60.5-1.5-16.5-2.1-22-2.4-22.5-.2-.3-.6-3-1-6-.7-5.5-5.8-29.8-7.5-35.5-11.6-39.3-24.2-67.3-44.5-99-23.1-36.2-61.3-74.9-98.3-99.8-41.8-28.1-92.7-48.3-139.7-55.3-2.7-.4-5.7-.9-6.5-1-.8-.2-4.2-.6-7.6-.9-3.3-.4-7.4-.9-9-1.1-3.3-.5-54-1.4-54.6-1zm42.6 64c5.9.3 11.1.8 11.5 1 .3.2 3.5.7 7.1 1 3.6.4 9.7 1.3 13.5 2.1 3.9.8 8.4 1.6 10.2 1.9 11.4 2 40.2 11.8 55.1 18.7 4.6 2.2 8.5 3.9 8.7 3.9 1.1 0 25 14 32.3 18.9 20.9 14.1 33.6 25.2 55.3 48.1 19 20.1 43.6 61 54.4 90.3 3.7 10.1 10.3 32.2 11 36.7.2 1.4.8 5 1.4 8 1.7 8.4 1.8 9.1 2.6 15 .4 3 .9 6.3 1.1 7.3.6 3.3 1.7 25.1 1.7 33.2 0 7.9-1.1 27.9-1.7 31.3-.2.9-.7 4.2-1 7.3-.4 3.1-.9 6.7-1.1 8-.9 4.4-1.3 6.4-2 10.4-1.6 9.1-9 35.1-12 42-.7 1.6-2.7 6.6-4.5 11-9.2 23-27.8 53.3-45.7 74.7-4.9 5.8-29.6 30.3-35.3 34.8-3 2.5-5.7 4.7-6 5-.3.3-3 2.3-6 4.6-33.3 24.5-75 43.3-113.5 51-1.1.2-3.1.6-4.5.9-5.9 1.1-21.2 3.1-31.4 4.1-13.4 1.2-42.2.6-54.6-1.1-1.4-.2-4.5-.6-7-.9-2.5-.4-5.6-.8-7-1.1-1.4-.3-4.1-.8-6-1.1-41.3-7.3-84.5-26.6-121-54.2-14.6-11.1-39.4-35.5-50.8-50.1-19.9-25.5-35.5-53.9-45.8-83.4-3.3-9.5-7.7-25.3-8.8-31.3-.3-1.6-.8-4-1.1-5.4-.3-1.4-.8-3.6-1.1-5-.2-1.4-.6-3.5-.9-4.6-.3-1.2-.7-4.8-1.1-8-.3-3.2-.7-6.1-.9-6.4-.6-1-1.8-23.9-1.8-33.5 0-9.2 1.3-31.6 1.8-32.5.1-.3.6-3.2 1-6.5.7-6.8 3.9-23 6.1-32C78 257 90.6 226 100.8 209c1.2-1.9 2.9-4.9 3.8-6.5 4.4-7.9 19.6-29.2 26.3-36.9C167.3 123.9 207 96.8 257.5 79c7.2-2.6 23.2-7.1 29.5-8.4 9.4-2 12-2.5 16-3.1 2.5-.3 7.2-1 10.5-1.5s10.7-1.2 16.5-1.6c5.8-.3 10.6-.7 10.7-.8.4-.3 19.8.2 29.7.8z"/><path d="M318.2 154.7c0 15.3-.1 29.6-.1 31.9l-.1 4.1-7.2.7c-16.6 1.5-28.8 5.4-42.5 13.7-22.9 13.9-40.1 39.5-44.3 66.1-1.1 7-1.4 22.1-.6 26.3.2 1.1.7 4.1 1 6.8.4 2.6 1.8 7.8 3 11.5 10.6 31.2 35.8 54.9 66.6 62.8 3.3.8 7 1.8 8.2 2.1 1.3.3 20.7.7 43.2.9 24.6.2 42.4.8 45 1.5 2.2.5 6.4 2.6 9.3 4.5 9 6.1 13.5 14.8 13.6 26 .2 15.6-11.1 28.9-26.4 31.1-4.1.6-96.7 1-100 .4-.4-.1-.6-6.9-.5-15.2.1-12.5-.2-15.2-1.4-15.8-1.1-.5-59.6-.7-62-.2-.3.1-.4 18.4-.3 40.8.1 22.5.3 43.8.3 47.5v6.8h95l.1 2.7c0 1.6.1 15.9.1 31.9v29h63.7v-31.4c0-17.3.1-31.5.3-31.7.2-.2 3.5-.6 7.3-.9 22.5-1.9 42.5-10.9 58.4-26.5 14.6-14.3 23.9-31.3 27.6-50.6 1.8-9.1 1.7-27.5 0-36.1-7-33.6-30.8-61.1-62.6-72-13.1-4.5-22.3-5.3-62.6-5.4-40.4-.1-42.9-.3-50.1-5.6-10.8-8-15.5-20.2-13-33.2 2-9.9 12-20.5 22.1-23.4 3-.8 18.9-1.2 53.2-1.3 27-.1 49.5 0 50.1.2.7.3 1 5.7 1 15.8-.1 9.5.3 15.6.9 15.8 1.9.6 61.5 0 62.1-.6.5-.4.9-79.3.5-92.5l-.1-2.2h-47.5c-44.6 0-47.5-.1-47.5-1.8 0-.9-.2-15.2-.3-31.7l-.2-30-31.6-.3-31.7-.2v27.7z"/></svg>