<svg width="176" height="176" viewBox="0 0 176 176" fill="none" xmlns="http://www.w3.org/2000/svg">
<path d="M176 88C176 39.48 136.52 0 88 0C39.48 0 0 39.48 0 88C0 136.52 39.48 176 88 176C136.52 176 176 136.52 176 88ZM16 88C16 48.296 48.296 16 88 16C127.704 16 160 48.296 160 88C160 127.704 127.704 160 88 160C48.296 160 16 127.704 16 88Z" fill="#F12386"/>
<path d="M96 144V128C109.232 128 120 117.232 120 104C120 90.768 109.232 80 96 80H80C75.584 80 72 76.416 72 72C72 67.584 75.584 64 80 64H104V72H120V48H96V32H80V48C66.768 48 56 58.768 56 72C56 85.232 66.768 96 80 96H96C100.416 96 104 99.584 104 104C104 108.416 100.416 112 96 112H72V104H56V128H80V144H96Z" fill="#F12386"/>
</svg>
