<svg width="32" height="32" xmlns="http://www.w3.org/2000/svg" style="vector-effect: non-scaling-stroke;" stroke="null">

 <g stroke="null">
  <title stroke="null">background</title>
  <rect stroke="null" fill="none" id="canvas_background" height="34" width="34" y="-1" x="-1"/>
 </g>
 <g stroke="null">
  <title stroke="null">Layer 1</title>
  <path stroke="null" stroke-width="0" id="svg_1" fill="#8950D2" d="m11.43429,7.36939c-1.34473,0 -2.68823,0.48621 -3.71209,1.45985c-0.97977,0.93323 -1.51986,2.17141 -1.51986,3.48674c0,1.3141 0.5401,2.55228 1.51986,3.4855l8.2778,7.87732l8.2778,-7.87732c0.97977,-0.93323 1.51986,-2.17141 1.51986,-3.4855c0,-1.31411 -0.5401,-2.55351 -1.51986,-3.48674c-2.04649,-1.94728 -5.37769,-1.94728 -7.42418,0l-0.85362,0.81321l-0.85362,-0.81321c-1.02386,-0.97364 -2.36736,-1.45985 -3.71209,-1.45985zm4.56571,19.65287l-9.98504,-9.5025c-1.45863,-1.38759 -2.26203,-3.23568 -2.26203,-5.20377c0,-1.9681 0.80341,-3.81619 2.26203,-5.20501c2.71885,-2.58781 6.98695,-2.8205 9.98504,-0.70176c2.99808,-2.11874 7.26619,-1.88605 9.98504,0.70176c1.45863,1.38882 2.26203,3.2369 2.26203,5.20501c0,1.96809 -0.80341,3.81618 -2.26203,5.20377l-9.98504,9.5025z" clip-rule="evenodd" fill-rule="evenodd"/>
 </g>
</svg>