<svg xmlns="http://www.w3.org/2000/svg" width="24" height="24" viewBox="0 0 24 24" fill="#F12386">
  <path fill-rule="evenodd" d="M7,22 C5.34314575,22 4,20.6568542 4,19 L4,13 L3,13 C2.10909515,13 1.66292836,11.9228581 2.29289322,11.2928932 L11.2928932,2.29289322 C11.6834175,1.90236893 12.3165825,1.90236893 12.7071068,2.29289322 L21.7071068,11.2928932 C22.3370716,11.9228581 21.8909049,13 21,13 L20,13 L20,19 C20,20.6568542 18.6568542,22 17,22 L7,22 Z M12,4.41421356 L5.35091163,11.0633019 C5.73009945,11.2054205 6,11.5711909 6,12 L6,19 C6,19.5522847 6.44771525,20 7,20 L8.99999525,19.999 L9,16 C9,14.8954305 9.8954305,14 11,14 L13,14 C14.1045695,14 15,14.8954305 15,16 L14.9999952,19.999 L17,20 C17.5522847,20 18,19.5522847 18,19 L18,12 C18,11.5711909 18.2699006,11.2054205 18.6490884,11.0633019 L12,4.41421356 Z M12.9999952,16 L10.9999952,16 L10.9999952,19.999 L12.9999952,19.999 L12.9999952,16 Z"/>
</svg>
