<svg width="893.61704" height="736.75" xmlns="http://www.w3.org/2000/svg">
 <title>investing</title>

 <g>
  <title>background</title>
  <rect fill="none" id="canvas_background" height="602" width="802" y="-1" x="-1"/>
 </g>
 <g>
  <title>Layer 1</title>
  <path id="svg_1" fill="#f2f2f2" d="m86.68112,574.41613s332.5,-277.5 524,0"/>
  <ellipse id="svg_2" fill="#f2f2f2" ry="24" rx="154" cy="718.20459" cx="632.29816"/>
  <ellipse id="svg_3" stroke-miterlimit="10" stroke="#3f3d56" fill="none" ry="24" rx="154" cy="709.20459" cx="657.29816"/>
  <path id="svg_4" fill="#57b894" d="m722.78656,460.90464a15.5288,15.5288 0 1 0 2.068,-29.78188l0.38869,7.99268l-3.78149,-6.8498a15.47025,15.47025 0 0 0 -7.97138,8.74657a15.227,15.227 0 0 0 -0.89321,4.2006a15.52584,15.52584 0 0 0 10.18939,15.69183z"/>
  <path id="svg_5" stroke-miterlimit="10" stroke="#3f3d56" fill="none" d="m741.49746,553.60612c-1.33486,-6.79742 4.44939,-12.82355 10.16291,-16.74051s12.38944,-7.76554 14.3389,-14.41283c2.80172,-9.55332 -5.54375,-18.30237 -12.03925,-25.84718a93.48988,93.48988 0 0 1 -12.32871,-18.32295a25.22231,25.22231 0 0 1 -2.94886,-8.33146c-0.51215,-4.23462 0.8483,-8.44847 2.21891,-12.48774q6.8489,-20.184 14.64532,-40.0298"/>
  <path id="svg_6" stroke-miterlimit="10" stroke="#3f3d56" fill="none" d="m723.42608,458.84686a15.5288,15.5288 0 1 0 2.068,-29.78187l0.38868,7.99267l-3.78148,-6.84979a15.4702,15.4702 0 0 0 -7.97138,8.74656a15.22718,15.22718 0 0 0 -0.89321,4.2006a15.52583,15.52583 0 0 0 10.18939,15.69183z"/>
  <path id="svg_7" fill="#57b894" d="m739.59946,414.67345a15.51068,15.51068 0 0 1 11.177,-9.84713l1.27857,7.59841l2.37047,-7.98034a15.52689,15.52689 0 1 1 -14.826,10.22906l-0.00004,0z"/>
  <path id="svg_8" stroke-miterlimit="10" stroke="#3f3d56" fill="none" d="m740.45215,411.92975a15.5107,15.5107 0 0 1 11.177,-9.84713l1.27857,7.59841l2.37047,-7.98034a15.52689,15.52689 0 1 1 -14.826,10.22906l-0.00004,0z"/>
  <path id="svg_9" fill="#57b894" d="m751.23412,496.75959a15.52693,15.52693 0 0 0 13.743,-27.62365l-1.82148,6.13265l-1.29158,-7.688a0.2711,0.2711 0 0 0 -0.03953,-0.015a15.52776,15.52776 0 1 0 -10.59039,29.194l-0.00002,0z"/>
  <path id="svg_10" stroke-miterlimit="10" stroke="#3f3d56" fill="none" d="m751.97295,493.98051a15.52693,15.52693 0 0 0 13.743,-27.62365l-1.82146,6.13262l-1.29159,-7.688a0.27093,0.27093 0 0 0 -0.03952,-0.015a15.52776,15.52776 0 1 0 -10.59039,29.194l-0.00004,0.00003z"/>
  <path id="svg_11" fill="#57b894" d="m735.06783,522.54774a15.52044,15.52044 0 1 0 2.99241,-12.15992l6.91859,10.41337l-9.4534,-5.52709a15.38252,15.38252 0 0 0 -0.4576,7.27364z"/>
  <path id="svg_12" stroke-miterlimit="10" stroke="#3f3d56" fill="none" d="m735.70735,520.48997a15.52043,15.52043 0 1 0 2.9924,-12.15993l6.9186,10.41337l-9.4534,-5.52708a15.38252,15.38252 0 0 0 -0.4576,7.27364z"/>
  <path id="svg_13" fill="#656380" d="m719.93777,562.8134s13.703,-5.37011 17.83272,-8.31084s21.07864,-6.45212 22.10312,-1.73584s20.593,23.45665 5.12244,23.58144s-35.94679,2.53829 -40.06857,0.02754s-4.98971,-13.5623 -4.98971,-13.5623z"/>
  <path id="svg_14" opacity="0.2" d="m765.27214,574.7064c-15.4706,0.12482 -35.94678,2.53831 -40.06857,0.02756c-3.139,-1.91207 -4.38981,-8.773 -4.80833,-11.9384c-0.28984,0.01246 -0.45746,0.01783 -0.45746,0.01783s0.86792,11.05155 4.98971,13.5623s24.598,0.09727 40.06857,-0.02755c4.46575,-0.036 6.00829,-1.62487 5.9236,-3.97809c-0.6204,1.42176 -2.3236,2.30954 -5.64752,2.33635z"/>
  <rect id="svg_15" fill="#6c63ff" rx="11.85052" height="158" width="60" y="418.45459" x="77.18112"/>
  <rect y="323.45459" x="191.18112" id="svg_16" fill="#6c63ff" rx="11.85052" height="253" width="60"/>
  <rect y="257.45459" x="305.18112" id="svg_17" fill="#6c63ff" rx="11.85052" height="319" width="60"/>
  <rect y="194.45459" x="419.18112" id="svg_18" fill="#6c63ff" rx="11.85052" height="382" width="60"/>
  <rect y="84.45459" x="533.18112" id="svg_19" fill="#6c63ff" rx="11.85052" height="492" width="60"/>
  <rect id="svg_20" stroke-miterlimit="10" stroke="#3f3d56" fill="none" rx="11.85052" height="158" width="60" y="410.45459" x="85.18112"/>
  <rect y="315.45459" x="199.18112" id="svg_21" stroke-miterlimit="10" stroke="#3f3d56" fill="none" rx="11.85052" height="253" width="60"/>
  <rect x="313.18112" y="249.45459" id="svg_22" stroke-miterlimit="10" stroke="#3f3d56" fill="none" rx="11.85052" height="319" width="60"/>
  <rect y="186.45459" x="427.18112" id="svg_23" stroke-miterlimit="10" stroke="#3f3d56" fill="none" rx="11.85052" height="382" width="60"/>
  <rect y="76.45459" x="541.18112" id="svg_24" stroke-miterlimit="10" stroke="#3f3d56" fill="none" rx="11.85052" height="492" width="60"/>
  <line y1="576.95459" y2="576.95459" x2="42.79652" id="svg_25" stroke-miterlimit="10" stroke="#3f3d56" fill="none" x1="903.79652"/>
  <path id="svg_26" fill="#a0616a" d="m724.88426,481.03059s9.41086,33.87907 -2.50956,38.89819s-8.15607,-37.64341 -8.15607,-37.64341l10.66563,-1.25478z"/>
  <path id="svg_27" fill="#575a89" d="m639.55921,698.10759s-8.78346,-0.62739 -11.92041,1.25478a7.57079,7.57079 0 0 1 -6.2739,0.62739s-13.80259,-1.25478 -8.78346,5.64651s10.0382,9.41083 10.0382,12.54778s20.70387,3.13695 21.33126,0s1.25478,-19.44909 0,-20.07648s-4.39169,0.00002 -4.39169,0.00002z"/>
  <path id="svg_28" fill="#575a89" d="m662.77264,698.10759s8.78347,-0.62739 11.92042,1.25478a7.57079,7.57079 0 0 0 6.2739,0.62739s13.80258,-1.25478 8.78346,5.64651s-10.03824,9.41085 -10.03824,12.5478s-20.70388,3.13695 -21.33127,0s-1.25478,-19.44909 0,-20.07648s4.39173,0 4.39173,0z"/>
  <path id="svg_29" fill="#3f3d56" d="m613.83622,474.1293s-4.39174,99.12764 -1.88217,104.14676s11.293,89.71678 10.03824,94.73591s-7.52868,25.723 0,28.85994s23.84082,0 23.84082,0s4.39173,-25.0956 2.50956,-38.2708s-2.50956,-68.38552 -2.50956,-68.38552l12.5478,-57.71989l4.39173,54.58294s1.25478,74.65942 -7.52868,89.71679s3.13695,21.33126 3.13695,21.33126s23.84083,3.13695 26.35039,2.50956s-1.88217,-25.0956 0,-35.76124s6.2739,-70.26769 10.03824,-84.69766s25.0956,-94.73591 9.41085,-111.048s-90.34417,-0.00005 -90.34417,-0.00005z"/>
  <circle id="svg_30" fill="#a0616a" r="21.95865" cy="252.0332" cx="659.63569"/>
  <path id="svg_31" fill="#a0616a" d="m643.32355,262.07144s3.76434,30.11473 1.88217,30.74212s33.25168,0 33.25168,0s-6.90129,-18.19431 0,-32.62429l-35.13385,1.88217z"/>
  <path id="svg_32" fill="#f2f2f2" d="m643.32355,286.53966s15.29117,-15.05736 33.36858,0l1.17041,4.48832l-9.44338,-0.09659l-25.09561,0l0,-4.39173z"/>
  <path id="svg_33" fill="#575a89" d="m717.98297,479.14842c-1.4493,0.28858 -5.00028,0.87832 -9.6305,1.581c-15.41486,2.32763 -42.73145,5.85356 -43.69766,3.43812c-1.25478,-3.13695 -5.64651,-14.43 -8.78346,-9.41085s-1.25478,9.41085 -14.43,10.03824c-8.96543,0.42662 -21.99633,-0.89092 -29.21132,-2.9613c-3.38785,-0.97245 -5.49594,-2.108 -5.29514,-3.3126c0.62739,-3.76434 7.52869,-75.28681 7.52869,-82.1881s2.50956,-40.153 2.50956,-40.153l-18.03119,-35.4789l-1.41791,-2.7919s1.88217,-6.90129 7.52868,-8.15607s32.62432,-16.93947 32.62432,-16.93947s5.64651,-8.78346 16.31214,-8.15607s13.17519,-3.76434 27.60517,8.15607c0,0 17.56692,7.52868 23.84082,11.293s13.17519,3.76434 13.80258,10.03824c0.12545,1.26106 -0.55846,3.68906 -1.7316,6.757c-4.29753,11.24286 -15.15769,31.13737 -16.858,34.23668c-0.15057,0.26977 -0.23213,0.4141 -0.23213,0.4141s-0.32625,11.28046 0.01884,24.487l0,0.03136c0.33882,12.667 1.29246,27.10326 3.7455,35.08368c5.01915,16.31212 20.07651,62.73894 13.80261,63.99377z"/>
  <path id="svg_34" fill="#3f3d56" d="m688.14212,243.01922a14.95811,14.95811 0 0 0 -2.48168,-5.54561a29.96345,29.96345 0 0 0 -4.47307,-12.90477a13.53957,13.53957 0 0 0 -4.00742,-4.62543a11.83,11.83 0 0 0 -6.30484,-1.57192c-0.40024,-0.00667 -1.12038,0.11472 -1.76852,0.14425c-0.41464,-0.1284 -0.83325,-0.243 -1.25287,-0.35077c-0.245,-0.54483 -0.7304,-2.13268 -0.86572,-2.02515l-1.82956,1.45367c-0.77351,-0.13437 -1.55109,-0.23906 -2.3315,-0.32208q-0.4262,-1.21571 -0.85247,-2.43141a16.66052,16.66052 0 0 0 -1.20875,2.27177q-1.16521,-0.05711 -2.332,-0.04l-1.555,-1.49373a2.193,2.193 0 0 1 -1.71544,1.68029c-0.71554,0.07341 -1.42817,0.1693 -2.13843,0.28356c-0.05782,-0.00038 -0.11648,0 -0.17316,-0.00142c-3.82944,-0.0955 -7.95,-0.2672 -11.15226,1.83515a10.98929,10.98929 0 0 0 -3.55,4.02929c-0.392,0.26648 -0.78539,0.531 -1.16633,0.81353a12.74754,12.74754 0 0 0 -3.28468,3.25643a13.80875,13.80875 0 0 0 -1.45344,3.52187a33.76072,33.76072 0 0 0 -1.67317,11.5335a17.11735,17.11735 0 0 0 4.20783,10.68276c1.64238,1.76462 3.73018,3.06768 5.37478,4.83023c3.38632,3.62916 4.02106,8.69067 6.91745,12.53068c3.06351,4.06153 8.65488,6.73418 13.5654,7.50023a22.65988,22.65988 0 0 0 16.88041,-4.21a10.44317,10.44317 0 0 0 2.87411,-3.01334c1.70434,-2.948 0.982,-6.65327 1.61473,-9.99915c1.18612,-6.27148 7.17134,-11.53441 6.1356,-17.83243z"/>
  <path id="svg_35" fill="#a0616a" d="m604.42536,482.91276s9.41086,33.87907 -2.50956,38.89819s-8.15607,-37.64341 -8.15607,-37.64341l10.66563,-1.25478z"/>
  <path id="svg_36" opacity="0.1" d="m615.71211,406.03235s-4.11572,61.08273 -3.48205,75.80128c-3.38785,-0.97245 -5.49594,-2.108 -5.29514,-3.3126c0.62739,-3.76434 7.52869,-75.28681 7.52869,-82.1881s2.50956,-40.153 2.50956,-40.153l-18.03119,-35.4789c0.28858,-1.75673 0.46426,-2.7919 0.46426,-2.7919l9.09716,19.1354l12.8615,3.45065l-5.65279,65.53717z"/>
  <path id="svg_37" fill="#575a89" d="m601.9158,314.14482l-4.39173,3.76434s-5.64651,33.25168 -5.01912,41.40775s-13.17519,131.75192 -2.50956,131.75192s22.58605,-1.88217 20.70388,-6.2739s3.13328,-78.76242 3.13328,-78.76242l5.65018,-65.5373l-17.56693,-26.35039z"/>
  <path id="svg_38" opacity="0.1" d="m717.50615,320.90179c-4.29753,11.24286 -15.15769,31.13737 -16.858,34.23668c0.05017,-8.0243 0.08157,-13.70218 0.08157,-13.70218l13.17519,-26.97777l2.82325,-2.19587s0.30117,3.31888 0.77799,8.63914z"/>
  <path id="svg_39" opacity="0.1" d="m717.98297,479.14842c-1.4493,0.28858 -5.00028,0.87832 -9.6305,1.581c-2.4028,-17.76766 -8.82726,-68.86231 -8.41952,-73.67442c0.20081,-2.37151 0.37021,-14.09115 0.50194,-26.98405c0.33882,12.667 1.29246,27.10326 3.7455,35.08368c5.01912,16.31214 20.07648,62.73896 13.80258,63.99379z"/>
  <path id="svg_40" fill="#575a89" d="m709.8269,309.75309l9.41085,2.50956s6.27391,69.6403 6.9013,81.56072s8.15607,85.32505 6.90129,88.462s-20.70388,7.52868 -21.33127,4.39173s-9.74794,-73.92136 -9.2657,-79.6232s-2.65471,-64.67652 -2.65471,-64.67652l10.03824,-32.62429z"/>
  <polyline id="svg_41" stroke-miterlimit="10" stroke="#3f3d56" fill="none" points="114.68112182617188,349.95459175109863 228.68112182617188,254.95459175109863 343.6811218261719,189.95459175109863 457.6811218261719,126.95459175109863 571.6811218261719,16.954591751098633 "/>
  <circle id="svg_42" fill="#f2f2f2" r="11" cy="354.95459" cx="111.68112"/>
  <circle id="svg_43" fill="#f2f2f2" r="11" cy="259.95459" cx="225.68112"/>
  <circle id="svg_44" fill="#f2f2f2" r="11" cy="194.95459" cx="340.68112"/>
  <circle id="svg_45" fill="#f2f2f2" r="11" cy="131.95459" cx="454.68112"/>
  <circle id="svg_46" fill="#f2f2f2" r="11" cy="21.95459" cx="568.68112"/>
  <circle id="svg_47" stroke-miterlimit="10" stroke="#3f3d56" fill="none" r="11" cy="349.95459" cx="114.68112"/>
  <circle id="svg_48" stroke-miterlimit="10" stroke="#3f3d56" fill="none" r="11" cy="254.95459" cx="228.68112"/>
  <circle id="svg_49" stroke-miterlimit="10" stroke="#3f3d56" fill="none" r="11" cy="189.95459" cx="343.68112"/>
  <circle id="svg_50" stroke-miterlimit="10" stroke="#3f3d56" fill="none" r="11" cy="126.95459" cx="457.68112"/>
  <circle id="svg_51" stroke-miterlimit="10" stroke="#3f3d56" fill="none" r="11" cy="16.95459" cx="571.68112"/>
 </g>
</svg>