<svg width="530" height="420" xmlns="http://www.w3.org/2000/svg">
 <!-- Created with Method Draw - http://github.com/duopixel/Method-Draw/ -->

 <g>
  <title>background</title>
  <rect fill="none" id="canvas_background" height="422" width="532" y="-1" x="-1"/>
 </g>
 <g>
  <title>Layer 1</title>
  <g stroke="null" id="svg_7">
   <path stroke="null" id="svg_4" fill="#E41931" d="m23.970751,339.586472l22.278917,0l0,-44.558231l22.279017,0l0,-133.674l-22.279017,0l0,-44.557934l-22.278917,0l0,44.557934l-22.279017,0l0,133.674l22.279017,0l0,44.558231zm0,-155.953215l22.278917,0l0,89.115868l-22.278917,0l0,-89.115868z"/>
   <path stroke="null" id="svg_5" fill="#E41931" d="m114.637061,373.004155l22.279116,0l0,-44.558231l22.279116,0l0,-111.394587l-22.279116,0l0,-44.558033l-22.279116,0l0,44.558033l-22.279116,0l0,111.394587l22.279116,0l0,44.558231zm0,-133.673703l22.279116,0l0,66.836356l-22.279116,0l0,-66.836356z"/>
   <path stroke="null" id="svg_6" fill="#E41931" d="m209.266822,417.562386l22.279116,0l0,-44.558231l22.279116,0l0,-89.116462l-22.279116,0l0,-44.55724l-22.279116,0l0,44.55724l-22.279116,0l0,89.116462l22.279116,0l0,44.558231zm0,-111.395578l22.279116,0l0,44.558231l-22.279116,0l0,-44.558231z"/>
  </g>
  <g stroke="null" id="svg_14">
   <path stroke="null" id="svg_11" fill="#16E142" d="m300.886265,417.458315l22.276223,0l0,-44.552843l22.276322,0l0,-133.657539l-22.276322,0l0,-44.552843l-22.276223,0l0,44.552843l-22.276322,0l0,133.657539l22.276322,0l0,44.552843zm0,-155.93396l22.276223,0l0,89.104696l-22.276223,0l0,-89.104696z"/>
   <path stroke="null" id="svg_12" fill="#16E142" d="m390.922382,290.176367l22.276422,0l0,-44.552843l22.276422,0l0,-111.381117l-22.276422,0l0,-44.552843l-22.276422,0l0,44.552843l-22.276223,0l0,111.381117l22.276223,0l0,44.552843zm0,-133.657539l22.276422,0l0,66.828274l-22.276422,0l0,-66.828274z"/>
   <path stroke="null" id="svg_13" fill="#16E142" d="m482.692242,179.210382l22.276422,0l0,-44.552843l22.276422,0l0,-89.104993l-22.276422,0l0,-44.552546l-22.276422,0l0,44.552546l-22.275431,0l0,89.104993l22.275431,0l0,44.552843zm0,-111.381612l22.276422,0l0,44.552348l-22.276422,0l0,-44.552348z"/>
  </g>
 </g>
</svg>