<svg width="800" height="400" xmlns="http://www.w3.org/2000/svg">
 <!-- Created with Method Draw - http://github.com/duopixel/Method-Draw/ -->

 <g>
  <title>background</title>
  <rect fill="none" id="canvas_background" height="402" width="802" y="-1" x="-1"/>
  <g display="none" overflow="visible" y="0" x="0" height="100%" width="100%" id="canvasGrid">
   <rect fill="url(#gridpattern)" stroke-width="0" y="0" x="0" height="100%" width="100%"/>
  </g>
 </g>
 <g>
  <title>Layer 1</title>
  <g stroke="null" id="svg_5">
   <path stroke="#E31553" id="svg_4" stroke-width="0.704082" fill="#C41F6F" d="m12.78352,279.899463l0,1.069913l1.010009,0.27923c20.147916,5.568531 40.517488,8.353599 61.106186,8.353599c23.720896,0 41.753935,-4.164747 53.889796,-12.703964c12.227866,-8.603902 18.297002,-21.525625 18.297002,-38.524911c0,-17.43842 -4.960653,-30.754681 -15.093691,-39.67799c-10.094067,-8.888757 -25.091735,-13.211399 -44.748326,-13.211399l-24.364531,0c-8.773047,0 -15.098111,-1.908005 -19.217055,-5.48215c-4.075915,-3.53678 -6.217871,-8.904828 -6.217871,-16.375337c0,-7.799961 3.280572,-13.568211 9.951519,-17.473856c6.78509,-3.972419 17.139102,-6.044266 31.238814,-6.044266c20.210231,0 40.264173,3.297446 60.165844,9.898204l1.787876,0.593093l0,-1.922348l0,-26.576917l0,-1.069913l-1.009648,-0.278909c-20.147554,-5.56833 -40.463049,-8.35376 -60.944072,-8.35376c-23.774733,0 -41.847668,4.164706 -54.010287,12.7032c-12.255348,8.60334 -18.338867,21.525384 -18.338867,38.525473c0,17.414716 4.675195,30.722138 14.252586,39.652277c9.553284,8.907238 23.750868,13.237514 42.341162,13.237514l24.364531,0c9.329097,0 16.073206,1.914032 20.465354,5.507462c4.334294,3.545619 6.593847,8.906837 6.593847,16.349624c0,7.82929 -3.157911,13.595089 -9.527169,17.487436c-6.48095,3.960648 -16.378149,6.030968 -29.876814,6.030968c-20.319512,0 -40.42697,-3.297727 -60.328038,-9.898003l-1.788157,-0.593012l0,1.922469l0,26.576274z"/>
  </g>
  <g stroke="null" id="svg_10">
   <path stroke="#B90C89" id="svg_9" stroke-width="0.704082" fill="#A30C55" d="m189.74525,96.061744l0,1.160437l1.134814,0l16.544713,0l0,159.857971l0,1.16037l1.13478,0l25.690617,0l1.13468,0l0,-1.16037l0,-186.159967l0,-1.160437l-1.13468,0l-43.37011,0l-1.134814,0l0,1.160437l0,25.141559z"/>
  </g>
  <g stroke="null" id="svg_15">
   <path stroke="#F9F9F9" id="svg_14" stroke-width="0.704082" fill="#C9176D" d="m361.639229,287.024171l0.995549,-0.305817l0,-1.063782l0,-16.870486l0,-1.863674l-1.761735,0.482977c-7.502378,2.058509 -15.952214,3.096396 -25.361837,3.096396c-8.863757,0 -15.037887,-1.427967 -18.784842,-4.040564c-3.660266,-2.552173 -6.341836,-7.448943 -7.801454,-15.089021c-1.280649,-7.689404 -1.93499,-20.161717 -1.93499,-37.487229c0,-16.94653 0.654341,-29.131523 1.93499,-36.626503c1.462413,-7.660219 4.060089,-12.562743 7.546977,-15.109573l0.008426,-0.007399c3.741324,-2.781125 9.898725,-4.301577 18.751383,-4.301577c8.662756,0 16.945296,0.942113 24.850087,2.822229l1.714054,0.407756l0,-1.800374l0,-16.584811l0,-1.030488l-0.9565,-0.325547c-3.489354,-1.189562 -8.069619,-2.060564 -13.701336,-2.637671c-5.639937,-0.767831 -11.10107,-1.15339 -16.380111,-1.15339c-12.798395,0 -22.65507,2.397621 -29.338032,7.418525c-6.696937,4.839223 -11.212833,12.725106 -13.687484,23.420886l-0.002795,0.018497c-2.270526,10.449565 -3.389018,25.730133 -3.389018,45.775113c0,20.038404 0.931138,35.205934 2.821407,45.444223c1.909793,10.356258 6.148851,18.238441 12.826223,23.460347l0.016771,0.01192c6.881496,5.228071 17.406488,7.716532 31.311948,7.716532c5.279451,0 10.645222,-0.384737 16.103478,-1.15339c5.634594,-0.577517 10.382565,-1.447287 14.21884,-2.624106zm134.987321,0.741524l0.397069,0.748511l0.833598,0l22.089925,0l2.357338,0l-1.132427,-2.116466l-39.891016,-74.501758l39.040976,-69.933824l1.193672,-2.138663l-2.407486,0l-21.530905,0l-0.827432,0l-0.397069,0.738646l-33.717132,62.454875l-12.593983,0l0,-128.388828l0,-1.429694l-1.397961,0l-19.853434,0l-1.397961,0l0,1.429694l0,212.456407l0,1.429612l1.397961,0l19.853434,0l1.397961,0l0,-1.429612l0,-63.479608l12.588639,0l33.996231,64.160709zm172.758993,-65.59032l1.397961,0l0,-1.430023l0,-6.576707c0,-21.540359 -0.836064,-37.274309 -2.533265,-47.129093c-1.53525,-9.985907 -5.500182,-17.515826 -12.023864,-22.367791c-6.520805,-4.850321 -17.056689,-7.136138 -31.300603,-7.136138c-15.180684,0 -26.527969,2.384056 -33.778378,7.393863l-0.013976,0.010276c-7.077359,5.026659 -11.523213,12.829922 -13.438679,23.210843c-1.890392,10.052908 -2.821407,25.511046 -2.821407,46.304127c0,20.800891 1.118451,36.3733 3.391937,46.638717c2.295682,10.377632 7.032144,18.078134 14.302282,22.901327l0,0.000411l0.022607,0.014387c7.23931,4.601229 18.563988,6.792094 33.733574,6.792094c6.948702,0 14.171159,-0.383915 21.67066,-1.150924c7.488403,-0.765364 13.441556,-1.727619 17.831508,-2.898684l1.042819,-0.278688l0,-1.104476l0,-16.584811l0,-1.715698l-1.64952,0.309516c-11.095316,2.080295 -22.75294,3.121881 -34.980682,3.121881c-10.751683,0 -18.18665,-1.241353 -22.532209,-3.539913c-4.029055,-2.415707 -6.825389,-6.677413 -8.254178,-13.054763c-1.23601,-6.510118 -1.887515,-17.061622 -1.926564,-31.729734l71.859977,0zm-22.610307,-49.999003l0,0.009454c1.451397,6.114282 2.197853,16.071828 2.197853,29.973342l0,2.001374l-51.447523,0c0.033295,-14.479031 0.592726,-24.755547 1.652398,-30.903946c1.263961,-6.452983 3.727349,-10.462719 7.147236,-12.461626c3.584716,-2.09427 9.613501,-3.243139 18.32065,-3.243139c7.200261,0 12.19157,1.049396 15.211512,2.935678l0.036583,0.023841l0.039049,0.021374c3.01131,1.620747 5.385501,5.318501 6.842241,11.643649zm3.595815,31.98417l0,1.430023l-1.397961,0l1.397961,-1.430023zm96.426855,82.924053l0,1.429612l1.39755,0l19.857544,0l1.39755,0l0,-1.429612l0,-126.959217l23.207555,0l1.39755,0l0,-1.429612l0,-17.44266l0,-1.429612l-1.39755,0l-23.207555,0l0,-40.8901l0,-1.429694l-1.39755,0l-19.857544,0l-1.39755,0l0,1.429694l0,40.8901l-19.290303,0l-1.39755,0l0,1.429612l0,17.44266l0,1.429612l1.39755,0l19.290303,0l0,126.959217z"/>
  </g>
 </g>
</svg>