<svg xmlns="http://www.w3.org/2000/svg" width="24" height="24" viewBox="0 0 24 24" fill="#F12386">
  <path fill-rule="evenodd" d="M5,2 L17,2 C18.5976809,2 19.9036609,3.24891996 19.9949073,4.82372721 L20,5 L20.0009007,8.17102423 C21.1656226,8.58311485 22,9.69411778 22,11 L22,13 C22,14.3058822 21.1656226,15.4168852 20.0009007,15.8289758 L20,19 C20,20.5976809 18.75108,21.9036609 17.1762728,21.9949073 L17,22 L5,22 C3.40231912,22 2.09633912,20.75108 2.00509269,19.1762728 L2,19 L2,5 C2,3.40231912 3.24891996,2.09633912 4.82372721,2.00509269 L5,2 L17,2 L5,2 Z M17,4 L5,4 C4.48716416,4 4.06449284,4.38604019 4.00672773,4.88337887 L4,5 L4,19 C4,19.5128358 4.38604019,19.9355072 4.88337887,19.9932723 L5,20 L17,20 C17.5128358,20 17.9355072,19.6139598 17.9932723,19.1166211 L18,19 L18,16 L17,16 C15.3431458,16 14,14.6568542 14,13 L14,11 C14,9.34314575 15.3431458,8 17,8 L18,8 L18,5 C18,4.48716416 17.6139598,4.06449284 17.1166211,4.00672773 L17,4 Z M19,10 L17,10 C16.4477153,10 16,10.4477153 16,11 L16,13 C16,13.5522847 16.4477153,14 17,14 L19,14 C19.5522847,14 20,13.5522847 20,13 L20,11 C20,10.4477153 19.5522847,10 19,10 Z"/>
</svg>
